<?xml version="1.0" standalone="no"?>
<!DOCTYPE svg PUBLIC "-//W3C//DTD SVG 20010904//EN"
 "http://www.w3.org/TR/2001/REC-SVG-20010904/DTD/svg10.dtd">
<svg version="1.0" xmlns="http://www.w3.org/2000/svg"
 width="3600.000000pt" height="2400.000000pt" viewBox="0 0 3600.000000 2400.000000"
 preserveAspectRatio="xMidYMid meet">

<g transform="translate(0.000000,2400.000000) scale(0.100000,-0.100000)"
fill="#000000" stroke="none">
<path d="M9629 20642 c-47 -92 -367 -712 -712 -1378 -345 -666 -627 -1216
-627 -1222 0 -5 33 -31 73 -57 39 -26 85 -57 101 -68 37 -25 128 -77 236 -134
47 -25 92 -51 100 -57 27 -23 283 -163 400 -219 371 -177 405 -193 555 -254
120 -49 205 -82 305 -118 36 -13 97 -35 135 -50 39 -14 95 -34 125 -44 30 -11
81 -30 112 -45 32 -14 126 -45 210 -70 137 -39 329 -101 678 -217 195 -64 341
-116 444 -159 55 -22 104 -40 109 -40 5 0 35 -11 66 -25 31 -13 103 -43 161
-66 58 -22 128 -50 155 -61 28 -11 106 -47 174 -79 69 -33 177 -83 240 -110
309 -135 369 -161 406 -181 81 -43 515 -258 521 -258 3 0 90 -47 192 -104 103
-57 236 -129 295 -160 60 -31 130 -72 156 -90 26 -19 90 -60 142 -91 52 -32
119 -74 149 -94 30 -20 68 -42 83 -49 32 -14 169 -105 237 -157 25 -19 99 -74
165 -122 179 -130 349 -259 450 -340 192 -154 232 -186 300 -237 39 -29 115
-93 170 -141 55 -48 123 -105 151 -126 29 -21 78 -62 110 -91 33 -30 88 -76
124 -103 125 -93 432 -380 531 -495 35 -41 93 -104 128 -140 52 -51 162 -170
282 -304 5 -6 9 796 9 1795 l0 1804 -35 24 c-55 38 -106 117 -136 214 -16 53
-55 138 -97 210 -38 67 -72 132 -76 144 -4 12 -35 61 -69 110 -34 48 -74 108
-89 133 -47 79 -166 221 -314 375 -270 281 -369 378 -420 416 -28 20 -71 54
-96 76 -46 38 -215 159 -466 332 -177 122 -533 320 -887 494 -55 27 -176 87
-270 133 -93 46 -219 103 -280 128 -60 24 -146 62 -190 84 -107 53 -220 102
-237 102 -7 0 -51 19 -98 41 -83 41 -261 112 -370 149 -30 10 -100 35 -155 55
-55 20 -136 48 -180 62 -44 14 -138 45 -210 68 -176 59 -396 127 -535 165
-117 32 -170 48 -410 121 -74 22 -189 56 -255 74 -122 33 -365 110 -465 146
-30 11 -134 47 -230 80 -206 71 -273 96 -395 149 -126 54 -345 140 -358 140
-6 0 -57 23 -113 50 -56 28 -106 50 -111 50 -4 0 -47 -76 -94 -168z"/>
<path d="M25155 20774 c-38 -19 -99 -46 -135 -59 -155 -56 -363 -138 -392
-155 -27 -15 -210 -86 -243 -94 -16 -4 -52 -15 -80 -26 -138 -51 -340 -121
-420 -145 -49 -15 -115 -35 -145 -46 -51 -18 -153 -48 -405 -119 -55 -16 -140
-42 -190 -58 -49 -17 -144 -44 -210 -62 -134 -35 -388 -113 -540 -167 -55 -19
-146 -48 -203 -64 -57 -16 -120 -36 -140 -45 -20 -9 -68 -27 -107 -40 -202
-67 -352 -125 -511 -198 -56 -25 -106 -46 -111 -46 -14 0 -88 -32 -198 -85
-97 -47 -219 -102 -355 -158 -47 -19 -118 -53 -157 -76 -40 -23 -96 -50 -125
-61 -29 -11 -111 -52 -183 -90 -71 -38 -184 -97 -250 -130 -141 -71 -233 -121
-295 -159 -25 -16 -71 -42 -103 -60 -31 -17 -83 -51 -115 -75 -31 -24 -70 -51
-87 -60 -33 -18 -93 -60 -296 -209 -256 -187 -366 -284 -568 -503 -30 -33 -98
-104 -150 -160 -116 -122 -224 -255 -269 -332 -19 -31 -53 -83 -78 -117 -24
-34 -58 -90 -75 -126 -17 -35 -41 -77 -53 -94 -24 -35 -61 -110 -86 -175 -62
-160 -84 -199 -147 -255 l-33 -30 2 -1803 3 -1803 85 98 c47 53 122 134 167
180 45 45 107 113 138 152 74 92 408 402 550 511 39 29 104 83 146 119 164
143 390 329 579 476 56 44 141 112 190 150 95 76 213 165 345 260 46 33 120
87 165 120 166 122 216 156 265 182 28 14 75 41 105 61 80 51 119 76 173 108
26 16 73 47 105 69 31 22 109 67 172 99 63 33 185 98 270 146 85 48 218 117
295 155 77 37 190 92 252 121 61 30 127 66 147 79 20 13 66 36 103 51 65 25
266 113 402 176 35 16 82 36 105 45 22 9 46 20 51 24 14 11 270 126 297 134
41 12 152 55 178 69 14 8 48 21 75 29 28 9 86 30 130 47 44 17 130 49 190 71
61 22 133 48 160 59 28 10 97 33 155 51 58 18 193 61 300 97 107 35 254 81
325 102 126 37 310 101 350 122 10 6 51 22 90 35 38 14 99 35 135 48 72 26
378 148 425 170 17 7 95 44 175 81 317 146 412 195 634 324 23 14 74 42 112
63 38 21 76 42 84 47 8 5 44 26 80 46 154 88 290 185 290 207 0 7 -15 46 -34
87 -69 155 -97 216 -108 235 -12 19 -77 153 -141 285 -49 101 -168 323 -183
340 -7 9 -20 34 -28 57 -8 22 -28 67 -44 100 -16 33 -37 82 -46 109 -24 74
-117 254 -241 469 -86 150 -170 304 -248 455 -124 242 -155 294 -219 365 -73
81 -104 121 -142 188 -15 26 -31 47 -34 47 -4 -1 -38 -17 -77 -36z"/>
</g>
</svg>
